# xmcd
#
# Track frame offsets:
#	150
#	51525
#	88275
#	130650
#
# Disc length: 2509 seconds
#
# Revision: 2
# Processed by: cddbd v1.5.1PL2 Copyright (c) Steve Scherf et al.
# Submitted via: EasyCDDAExtractor 8.0.2.1
#
DISCID=3509cb04
DTITLE=Heavy Metal Kids - Barbarellas Birmingham 31-03-78 Disc 2
DYEAR=1978
DGENRE=Hard Rock
TTITLE0=The Cops Are Coming
TTITLE1=Delirious
TTITLE2=Ain't Nothing But A House Party
TTITLE3=Medley: Rock N Roll Man/Strangers In The Night/Jackie The Lad/Rock N R
TTITLE3=oll Man
EXTD=
EXTT0=
EXTT1=
EXTT2=
EXTT3=
PLAYORDER=
